PathFileType	4	(X/Y/Z)	E:/New_biomech_experiments/Elbow Flexion/Shreyas_25_06_24_elbow_flexion/Session 2024-06-26/Shreyas_ElbFlex_pp_staticPose.trc	
DataRate	CameraRate	NumFrames	NumMarkers	Units	OrigDataRate	OrigDataStartFrame	OrigNumFrames	
120.00	120.00	20	19	m	120.00	487	778	
Frame#	Time	MarkerSet_LFHD			MarkerSet_LBHD			MarkerSet_C7			MarkerSet_RBHD			MarkerSet_PRSHO			MarkerSet_RSHO			MarkerSet_STRN			MarkerSet_RFHD			MarkerSet_CLAV			MarkerSet_RWRA			MarkerSet_RWRB			MarkerSet_ARSHO			MarkerSet_RFRM			MarkerSet_RELB			MarkerSet_RUPA			MarkerSet_MRHAND			MarkerSet_T10			MarkerSet_RHAND			MarkerSet_MRELB			
		X1	Y1	Z1	X2	Y2	Z2	X3	Y3	Z3	X4	Y4	Z4	X5	Y5	Z5	X6	Y6	Z6	X7	Y7	Z7	X8	Y8	Z8	X9	Y9	Z9	X10	Y10	Z10	X11	Y11	Z11	X12	Y12	Z12	X13	Y13	Z13	X14	Y14	Z14	X15	Y15	Z15	X16	Y16	Z16	X17	Y17	Z17	X18	Y18	Z18	X19	Y19	Z19	

487	4.050	0.06093	1.83907	-0.04305	-0.04326	1.73676	-0.06429	-0.07090	1.54502	-0.00282	-0.05947	1.75460	0.07231	-0.09673	1.44787	0.12670	0.02233	1.50126	0.20779	0.16536	1.34503	-0.00594	0.04288	1.82187	0.08370	0.12607	1.46842	0.00160	0.27093	1.19096	0.15052	0.29093	1.16673	0.24542	0.10613	1.45804	0.11283	0.16464	1.18520	0.25838	0.03062	1.18868	0.27826	0.02339	1.30764	0.25524	0.38363	1.15048	0.24972	-0.09272	1.33430	-0.01289	0.40915	1.18989	0.13478	0.01967	1.13688	0.16973 
488	4.058	0.06095	1.83907	-0.04301	-0.04324	1.73674	-0.06424	-0.07085	1.54502	-0.00278	-0.05945	1.75459	0.07236	-0.09670	1.44787	0.12673	0.02235	1.50125	0.20786	0.16541	1.34501	-0.00587	0.04290	1.82187	0.08376	0.12612	1.46841	0.00167	0.27093	1.19095	0.15060	0.29092	1.16671	0.24549	0.10616	1.45803	0.11291	0.16463	1.18518	0.25845	0.03062	1.18867	0.27832	0.02340	1.30763	0.25530	0.38363	1.15046	0.24982	-0.09268	1.33432	-0.01285	0.40915	1.18986	0.13488	0.01968	1.13688	0.16979 
489	4.067	0.06098	1.83907	-0.04296	-0.04321	1.73671	-0.06420	-0.07081	1.54503	-0.00275	-0.05942	1.75459	0.07241	-0.09667	1.44785	0.12677	0.02238	1.50123	0.20792	0.16545	1.34500	-0.00580	0.04293	1.82187	0.08381	0.12616	1.46840	0.00175	0.27094	1.19094	0.15068	0.29092	1.16669	0.24557	0.10619	1.45801	0.11298	0.16462	1.18516	0.25852	0.03061	1.18865	0.27839	0.02341	1.30762	0.25537	0.38363	1.15044	0.24992	-0.09266	1.33434	-0.01282	0.40915	1.18983	0.13498	0.01968	1.13687	0.16985 
490	4.075	0.06100	1.83906	-0.04292	-0.04318	1.73669	-0.06415	-0.07077	1.54503	-0.00271	-0.05938	1.75458	0.07246	-0.09664	1.44782	0.12681	0.02240	1.50122	0.20798	0.16550	1.34498	-0.00572	0.04296	1.82187	0.08387	0.12621	1.46839	0.00183	0.27094	1.19093	0.15076	0.29092	1.16668	0.24566	0.10622	1.45799	0.11305	0.16462	1.18515	0.25859	0.03061	1.18864	0.27845	0.02342	1.30761	0.25544	0.38363	1.15043	0.25003	-0.09264	1.33439	-0.01278	0.40916	1.18980	0.13507	0.01969	1.13686	0.16991 
491	4.083	0.06102	1.83906	-0.04287	-0.04315	1.73668	-0.06411	-0.07072	1.54501	-0.00266	-0.05935	1.75458	0.07251	-0.09660	1.44780	0.12684	0.02242	1.50121	0.20804	0.16554	1.34497	-0.00565	0.04298	1.82188	0.08393	0.12626	1.46838	0.00191	0.27095	1.19092	0.15084	0.29092	1.16666	0.24574	0.10625	1.45797	0.11313	0.16462	1.18513	0.25866	0.03061	1.18863	0.27851	0.02343	1.30760	0.25550	0.38364	1.15042	0.25013	-0.09266	1.33445	-0.01274	0.40917	1.18976	0.13516	0.01969	1.13685	0.16996 
492	4.092	0.06105	1.83905	-0.04282	-0.04311	1.73666	-0.06406	-0.07066	1.54499	-0.00259	-0.05932	1.75457	0.07256	-0.09657	1.44779	0.12688	0.02244	1.50119	0.20810	0.16559	1.34495	-0.00558	0.04301	1.82188	0.08399	0.12631	1.46837	0.00199	0.27097	1.19091	0.15092	0.29093	1.16665	0.24582	0.10627	1.45796	0.11320	0.16462	1.18511	0.25873	0.03061	1.18861	0.27857	0.02344	1.30758	0.25557	0.38365	1.15041	0.25024	-0.09270	1.33454	-0.01271	0.40918	1.18973	0.13526	0.01970	1.13684	0.17002 
493	4.100	0.06108	1.83905	-0.04277	-0.04308	1.73664	-0.06401	-0.07061	1.54496	-0.00253	-0.05929	1.75457	0.07262	-0.09654	1.44778	0.12691	0.02247	1.50117	0.20816	0.16563	1.34493	-0.00550	0.04304	1.82188	0.08405	0.12636	1.46836	0.00207	0.27098	1.19089	0.15099	0.29094	1.16663	0.24591	0.10630	1.45794	0.11328	0.16462	1.18510	0.25880	0.03062	1.18860	0.27863	0.02346	1.30757	0.25563	0.38366	1.15040	0.25035	-0.09278	1.33467	-0.01267	0.40920	1.18969	0.13535	0.01971	1.13683	0.17008 
494	4.108	0.06111	1.83904	-0.04271	-0.04304	1.73661	-0.06397	-0.07056	1.54494	-0.00247	-0.05926	1.75457	0.07267	-0.09651	1.44777	0.12694	0.02249	1.50115	0.20822	0.16568	1.34491	-0.00543	0.04308	1.82188	0.08411	0.12641	1.46835	0.00215	0.27100	1.19087	0.15107	0.29095	1.16662	0.24599	0.10633	1.45791	0.11335	0.16463	1.18508	0.25887	0.03062	1.18858	0.27869	0.02347	1.30755	0.25569	0.38367	1.15039	0.25046	-0.09280	1.33474	-0.01264	0.40922	1.18966	0.13544	0.01973	1.13682	0.17013 
495	4.117	0.06115	1.83903	-0.04265	-0.04300	1.73659	-0.06392	-0.07051	1.54491	-0.00240	-0.05924	1.75457	0.07271	-0.09648	1.44776	0.12696	0.02251	1.50114	0.20829	0.16572	1.34488	-0.00536	0.04311	1.82188	0.08418	0.12645	1.46834	0.00223	0.27102	1.19085	0.15115	0.29096	1.16660	0.24607	0.10636	1.45789	0.11342	0.16464	1.18506	0.25894	0.03063	1.18856	0.27874	0.02348	1.30753	0.25575	0.38368	1.15038	0.25056	-0.09265	1.33464	-0.01260	0.40925	1.18963	0.13553	0.01975	1.13680	0.17019 
496	4.125	0.06119	1.83903	-0.04259	-0.04295	1.73658	-0.06387	-0.07045	1.54489	-0.00233	-0.05921	1.75457	0.07276	-0.09645	1.44777	0.12699	0.02254	1.50111	0.20835	0.16577	1.34485	-0.00529	0.04313	1.82188	0.08424	0.12650	1.46833	0.00230	0.27104	1.19083	0.15123	0.29098	1.16658	0.24616	0.10639	1.45786	0.11349	0.16465	1.18504	0.25901	0.03065	1.18854	0.27880	0.02350	1.30750	0.25580	0.38370	1.15037	0.25067	-0.09244	1.33449	-0.01256	0.40928	1.18960	0.13562	0.01977	1.13679	0.17024 
497	4.133	0.06123	1.83902	-0.04252	-0.04291	1.73656	-0.06382	-0.07040	1.54486	-0.00227	-0.05918	1.75457	0.07281	-0.09641	1.44777	0.12701	0.02257	1.50109	0.20841	0.16581	1.34482	-0.00523	0.04316	1.82188	0.08430	0.12655	1.46832	0.00238	0.27107	1.19081	0.15131	0.29100	1.16656	0.24625	0.10641	1.45783	0.11356	0.16466	1.18501	0.25908	0.03066	1.18852	0.27885	0.02352	1.30748	0.25586	0.38371	1.15035	0.25077	-0.09226	1.33437	-0.01252	0.40931	1.18958	0.13571	0.01979	1.13677	0.17029 
498	4.142	0.06127	1.83902	-0.04245	-0.04286	1.73655	-0.06377	-0.07034	1.54485	-0.00220	-0.05915	1.75457	0.07286	-0.09638	1.44775	0.12705	0.02260	1.50107	0.20847	0.16586	1.34478	-0.00517	0.04319	1.82188	0.08437	0.12659	1.46830	0.00246	0.27109	1.19079	0.15139	0.29101	1.16654	0.24633	0.10644	1.45780	0.11362	0.16468	1.18499	0.25914	0.03067	1.18850	0.27890	0.02353	1.30745	0.25591	0.38372	1.15034	0.25087	-0.09212	1.33428	-0.01248	0.40934	1.18956	0.13581	0.01981	1.13675	0.17034 
499	4.150	0.06132	1.83901	-0.04238	-0.04281	1.73653	-0.06371	-0.07029	1.54484	-0.00214	-0.05912	1.75457	0.07291	-0.09634	1.44773	0.12710	0.02263	1.50104	0.20853	0.16590	1.34474	-0.00512	0.04322	1.82188	0.08443	0.12664	1.46829	0.00254	0.27111	1.19078	0.15147	0.29103	1.16653	0.24642	0.10646	1.45777	0.11369	0.16469	1.18497	0.25921	0.03068	1.18847	0.27895	0.02355	1.30742	0.25597	0.38374	1.15033	0.25097	-0.09200	1.33422	-0.01244	0.40937	1.18955	0.13591	0.01983	1.13673	0.17039 
500	4.158	0.06136	1.83901	-0.04230	-0.04276	1.73652	-0.06366	-0.07023	1.54482	-0.00208	-0.05909	1.75456	0.07296	-0.09630	1.44770	0.12715	0.02266	1.50101	0.20859	0.16595	1.34471	-0.00505	0.04325	1.82188	0.08450	0.12668	1.46827	0.00261	0.27114	1.19077	0.15154	0.29105	1.16651	0.24651	0.10649	1.45774	0.11375	0.16469	1.18494	0.25927	0.03069	1.18845	0.27900	0.02357	1.30739	0.25602	0.38375	1.15033	0.25106	-0.09189	1.33417	-0.01240	0.40939	1.18954	0.13600	0.01985	1.13671	0.17043 
501	4.167	0.06140	1.83900	-0.04223	-0.04271	1.73650	-0.06361	-0.07018	1.54482	-0.00202	-0.05906	1.75455	0.07300	-0.09626	1.44768	0.12719	0.02269	1.50098	0.20866	0.16599	1.34468	-0.00499	0.04327	1.82188	0.08457	0.12673	1.46826	0.00269	0.27116	1.19076	0.15162	0.29107	1.16650	0.24660	0.10652	1.45771	0.11382	0.16470	1.18492	0.25932	0.03070	1.18843	0.27905	0.02359	1.30736	0.25607	0.38376	1.15032	0.25116	-0.09179	1.33413	-0.01236	0.40942	1.18955	0.13610	0.01987	1.13669	0.17047 
502	4.175	0.06144	1.83900	-0.04215	-0.04265	1.73649	-0.06356	-0.07012	1.54481	-0.00196	-0.05903	1.75455	0.07306	-0.09622	1.44766	0.12724	0.02273	1.50095	0.20872	0.16604	1.34464	-0.00494	0.04329	1.82188	0.08464	0.12677	1.46824	0.00276	0.27119	1.19075	0.15170	0.29108	1.16650	0.24669	0.10655	1.45767	0.11387	0.16471	1.18489	0.25938	0.03071	1.18840	0.27910	0.02361	1.30733	0.25612	0.38377	1.15032	0.25125	-0.09169	1.33411	-0.01232	0.40944	1.18955	0.13620	0.01989	1.13667	0.17051 
503	4.183	0.06148	1.83900	-0.04207	-0.04260	1.73648	-0.06350	-0.07005	1.54481	-0.00190	-0.05899	1.75454	0.07311	-0.09617	1.44763	0.12729	0.02277	1.50093	0.20878	0.16608	1.34460	-0.00488	0.04332	1.82188	0.08472	0.12682	1.46822	0.00283	0.27121	1.19075	0.15177	0.29110	1.16649	0.24677	0.10658	1.45764	0.11393	0.16472	1.18487	0.25943	0.03072	1.18837	0.27914	0.02363	1.30730	0.25618	0.38378	1.15033	0.25134	-0.09161	1.33408	-0.01227	0.40946	1.18956	0.13629	0.01991	1.13665	0.17055 
504	4.192	0.06152	1.83901	-0.04199	-0.04255	1.73647	-0.06345	-0.06999	1.54480	-0.00184	-0.05896	1.75452	0.07316	-0.09612	1.44761	0.12735	0.02281	1.50090	0.20884	0.16612	1.34457	-0.00483	0.04334	1.82188	0.08480	0.12686	1.46820	0.00289	0.27123	1.19074	0.15184	0.29112	1.16648	0.24686	0.10662	1.45760	0.11399	0.16473	1.18485	0.25949	0.03073	1.18835	0.27918	0.02365	1.30727	0.25623	0.38379	1.15033	0.25142	-0.09153	1.33407	-0.01223	0.40948	1.18957	0.13638	0.01992	1.13664	0.17058 
505	4.200	0.06155	1.83901	-0.04191	-0.04249	1.73646	-0.06339	-0.06993	1.54480	-0.00179	-0.05892	1.75451	0.07322	-0.09606	1.44759	0.12741	0.02285	1.50088	0.20890	0.16617	1.34454	-0.00477	0.04336	1.82187	0.08488	0.12691	1.46819	0.00296	0.27126	1.19074	0.15191	0.29113	1.16648	0.24694	0.10666	1.45757	0.11404	0.16474	1.18484	0.25954	0.03073	1.18832	0.27922	0.02367	1.30724	0.25627	0.38380	1.15033	0.25151	-0.09145	1.33406	-0.01219	0.40950	1.18958	0.13647	0.01994	1.13662	0.17062 
506	4.208	0.06158	1.83902	-0.04182	-0.04243	1.73645	-0.06334	-0.06987	1.54480	-0.00173	-0.05888	1.75449	0.07329	-0.09601	1.44757	0.12747	0.02289	1.50085	0.20895	0.16622	1.34453	-0.00470	0.04339	1.82187	0.08497	0.12696	1.46817	0.00302	0.27128	1.19073	0.15198	0.29115	1.16647	0.24702	0.10670	1.45753	0.11410	0.16475	1.18482	0.25959	0.03074	1.18830	0.27926	0.02369	1.30722	0.25632	0.38381	1.15033	0.25159	-0.09137	1.33405	-0.01215	0.40952	1.18959	0.13655	0.01996	1.13661	0.17065 
